<mxfile host="app.diagrams.net" modified="2024-06-18T18:36:43.780Z" agent="Mozilla/5.0 (Macintosh; Intel Mac OS X 10_15_7) AppleWebKit/537.36 (KHTML, like Gecko) Chrome/125.0.0.0 Safari/537.36" etag="r7O0t_5EoRIAOcNGrQki" version="24.5.4" type="device">
  <diagram name="Page-1" id="2YBvvXClWsGukQMizWep">
    <mxGraphModel dx="1137" dy="586" grid="1" gridSize="10" guides="1" tooltips="1" connect="1" arrows="1" fold="1" page="1" pageScale="1" pageWidth="850" pageHeight="1100" math="0" shadow="0">
      <root>
        <mxCell id="0" />
        <mxCell id="1" parent="0" />
        <mxCell id="2o6Xxl8_c5UQjFXMhfke-1" value="Create Task" style="shape=umlLifeline;perimeter=lifelinePerimeter;whiteSpace=wrap;html=1;container=0;dropTarget=0;collapsible=0;recursiveResize=0;outlineConnect=0;portConstraint=eastwest;newEdgeStyle={&quot;edgeStyle&quot;:&quot;elbowEdgeStyle&quot;,&quot;elbow&quot;:&quot;vertical&quot;,&quot;curved&quot;:0,&quot;rounded&quot;:0};" parent="1" vertex="1">
          <mxGeometry x="440" y="120" width="100" height="720" as="geometry" />
        </mxCell>
        <mxCell id="aM9ryv3xv72pqoxQDRHE-1" value="Authentication" style="shape=umlLifeline;perimeter=lifelinePerimeter;whiteSpace=wrap;html=1;container=0;dropTarget=0;collapsible=0;recursiveResize=0;outlineConnect=0;portConstraint=eastwest;newEdgeStyle={&quot;edgeStyle&quot;:&quot;elbowEdgeStyle&quot;,&quot;elbow&quot;:&quot;vertical&quot;,&quot;curved&quot;:0,&quot;rounded&quot;:0};" parent="1" vertex="1">
          <mxGeometry x="160" y="120" width="100" height="720" as="geometry" />
        </mxCell>
        <mxCell id="aM9ryv3xv72pqoxQDRHE-2" value="" style="html=1;points=[];perimeter=orthogonalPerimeter;outlineConnect=0;targetShapes=umlLifeline;portConstraint=eastwest;newEdgeStyle={&quot;edgeStyle&quot;:&quot;elbowEdgeStyle&quot;,&quot;elbow&quot;:&quot;vertical&quot;,&quot;curved&quot;:0,&quot;rounded&quot;:0};" parent="aM9ryv3xv72pqoxQDRHE-1" vertex="1">
          <mxGeometry x="45" y="70" width="10" height="590" as="geometry" />
        </mxCell>
        <mxCell id="aM9ryv3xv72pqoxQDRHE-5" value="Home" style="shape=umlLifeline;perimeter=lifelinePerimeter;whiteSpace=wrap;html=1;container=0;dropTarget=0;collapsible=0;recursiveResize=0;outlineConnect=0;portConstraint=eastwest;newEdgeStyle={&quot;edgeStyle&quot;:&quot;elbowEdgeStyle&quot;,&quot;elbow&quot;:&quot;vertical&quot;,&quot;curved&quot;:0,&quot;rounded&quot;:0};" parent="1" vertex="1">
          <mxGeometry x="300" y="120" width="100" height="720" as="geometry" />
        </mxCell>
        <mxCell id="aM9ryv3xv72pqoxQDRHE-6" value="" style="html=1;points=[];perimeter=orthogonalPerimeter;outlineConnect=0;targetShapes=umlLifeline;portConstraint=eastwest;newEdgeStyle={&quot;edgeStyle&quot;:&quot;elbowEdgeStyle&quot;,&quot;elbow&quot;:&quot;vertical&quot;,&quot;curved&quot;:0,&quot;rounded&quot;:0};" parent="aM9ryv3xv72pqoxQDRHE-5" vertex="1">
          <mxGeometry x="45" y="100" width="10" height="500" as="geometry" />
        </mxCell>
        <mxCell id="2o6Xxl8_c5UQjFXMhfke-2" value="" style="html=1;points=[];perimeter=orthogonalPerimeter;outlineConnect=0;targetShapes=umlLifeline;portConstraint=eastwest;newEdgeStyle={&quot;edgeStyle&quot;:&quot;elbowEdgeStyle&quot;,&quot;elbow&quot;:&quot;vertical&quot;,&quot;curved&quot;:0,&quot;rounded&quot;:0};" parent="aM9ryv3xv72pqoxQDRHE-5" vertex="1">
          <mxGeometry x="185" y="130" width="10" height="120" as="geometry" />
        </mxCell>
        <mxCell id="aM9ryv3xv72pqoxQDRHE-7" value="Access Server" style="html=1;verticalAlign=bottom;endArrow=block;edgeStyle=elbowEdgeStyle;elbow=vertical;curved=0;rounded=0;" parent="1" target="aM9ryv3xv72pqoxQDRHE-2" edge="1">
          <mxGeometry relative="1" as="geometry">
            <mxPoint x="80" y="200" as="sourcePoint" />
            <Array as="points">
              <mxPoint x="155" y="200" />
            </Array>
            <mxPoint x="200" y="200" as="targetPoint" />
          </mxGeometry>
        </mxCell>
        <mxCell id="2o6Xxl8_c5UQjFXMhfke-11" value="Log In" style="html=1;verticalAlign=bottom;endArrow=block;edgeStyle=elbowEdgeStyle;elbow=vertical;curved=0;rounded=0;" parent="1" edge="1">
          <mxGeometry x="0.5273" relative="1" as="geometry">
            <mxPoint x="80" y="230" as="sourcePoint" />
            <Array as="points">
              <mxPoint x="300" y="230" />
            </Array>
            <mxPoint x="345" y="230" as="targetPoint" />
            <mxPoint as="offset" />
          </mxGeometry>
        </mxCell>
        <mxCell id="2o6Xxl8_c5UQjFXMhfke-26" value="" style="html=1;verticalAlign=bottom;endArrow=block;edgeStyle=elbowEdgeStyle;elbow=vertical;curved=0;rounded=0;" parent="1" edge="1">
          <mxGeometry relative="1" as="geometry">
            <mxPoint x="215" y="310" as="sourcePoint" />
            <Array as="points" />
            <mxPoint x="215" y="310" as="targetPoint" />
          </mxGeometry>
        </mxCell>
        <mxCell id="2o6Xxl8_c5UQjFXMhfke-36" value="Log Out" style="endArrow=classic;html=1;rounded=0;verticalAlign=bottom;dashed=1;" parent="1" edge="1">
          <mxGeometry width="50" height="50" relative="1" as="geometry">
            <mxPoint x="345" y="700" as="sourcePoint" />
            <mxPoint x="215" y="700" as="targetPoint" />
            <mxPoint as="offset" />
          </mxGeometry>
        </mxCell>
        <mxCell id="2o6Xxl8_c5UQjFXMhfke-53" value="Leave Server" style="endArrow=classic;html=1;rounded=0;verticalAlign=bottom;dashed=1;" parent="1" edge="1">
          <mxGeometry width="50" height="50" relative="1" as="geometry">
            <mxPoint x="205" y="760" as="sourcePoint" />
            <mxPoint x="80" y="760" as="targetPoint" />
            <mxPoint as="offset" />
          </mxGeometry>
        </mxCell>
        <mxCell id="2o6Xxl8_c5UQjFXMhfke-54" value="User" style="shape=umlActor;verticalLabelPosition=bottom;verticalAlign=top;html=1;" parent="1" vertex="1">
          <mxGeometry x="65" y="110" width="30" height="60" as="geometry" />
        </mxCell>
        <mxCell id="2o6Xxl8_c5UQjFXMhfke-55" value="Sticky Notes Task Management Application - Sequence Diagram" style="text;align=center;fontStyle=5;verticalAlign=middle;spacingLeft=3;spacingRight=3;strokeColor=none;rotatable=0;points=[[0,0.5],[1,0.5]];portConstraint=eastwest;html=1;fontSize=16;" parent="1" vertex="1">
          <mxGeometry x="180" y="50" width="490" height="26" as="geometry" />
        </mxCell>
        <mxCell id="9y-IcUezVcp35G_ncE1K-1" value="View Task" style="shape=umlLifeline;perimeter=lifelinePerimeter;whiteSpace=wrap;html=1;container=0;dropTarget=0;collapsible=0;recursiveResize=0;outlineConnect=0;portConstraint=eastwest;newEdgeStyle={&quot;edgeStyle&quot;:&quot;elbowEdgeStyle&quot;,&quot;elbow&quot;:&quot;vertical&quot;,&quot;curved&quot;:0,&quot;rounded&quot;:0};" parent="1" vertex="1">
          <mxGeometry x="580" y="120" width="100" height="720" as="geometry" />
        </mxCell>
        <mxCell id="9y-IcUezVcp35G_ncE1K-2" value="" style="html=1;points=[];perimeter=orthogonalPerimeter;outlineConnect=0;targetShapes=umlLifeline;portConstraint=eastwest;newEdgeStyle={&quot;edgeStyle&quot;:&quot;elbowEdgeStyle&quot;,&quot;elbow&quot;:&quot;vertical&quot;,&quot;curved&quot;:0,&quot;rounded&quot;:0};" parent="9y-IcUezVcp35G_ncE1K-1" vertex="1">
          <mxGeometry x="45" y="280" width="10" height="260" as="geometry" />
        </mxCell>
        <mxCell id="9y-IcUezVcp35G_ncE1K-3" value="Create Task" style="html=1;verticalAlign=bottom;endArrow=block;edgeStyle=elbowEdgeStyle;elbow=vertical;curved=0;rounded=0;" parent="1" target="2o6Xxl8_c5UQjFXMhfke-2" edge="1">
          <mxGeometry x="0.679" relative="1" as="geometry">
            <mxPoint x="80" y="260" as="sourcePoint" />
            <Array as="points">
              <mxPoint x="345" y="260" />
            </Array>
            <mxPoint x="480" y="260" as="targetPoint" />
            <mxPoint as="offset" />
          </mxGeometry>
        </mxCell>
        <mxCell id="9y-IcUezVcp35G_ncE1K-5" value="Delete Task" style="endArrow=classic;html=1;rounded=0;verticalAlign=bottom;dashed=1;" parent="1" edge="1">
          <mxGeometry width="50" height="50" relative="1" as="geometry">
            <mxPoint x="622.5300000000001" y="580" as="sourcePoint" />
            <mxPoint x="377.46" y="580" as="targetPoint" />
            <mxPoint as="offset" />
          </mxGeometry>
        </mxCell>
        <mxCell id="9y-IcUezVcp35G_ncE1K-8" value="Access Task" style="html=1;verticalAlign=bottom;endArrow=block;edgeStyle=elbowEdgeStyle;elbow=vertical;curved=0;rounded=0;" parent="1" edge="1">
          <mxGeometry x="0.7623" relative="1" as="geometry">
            <mxPoint x="80" y="410" as="sourcePoint" />
            <Array as="points">
              <mxPoint x="345.25" y="410" />
            </Array>
            <mxPoint x="624.7500000000002" y="410" as="targetPoint" />
            <mxPoint as="offset" />
          </mxGeometry>
        </mxCell>
        <mxCell id="9y-IcUezVcp35G_ncE1K-11" value="Update Task" style="shape=umlLifeline;perimeter=lifelinePerimeter;whiteSpace=wrap;html=1;container=0;dropTarget=0;collapsible=0;recursiveResize=0;outlineConnect=0;portConstraint=eastwest;newEdgeStyle={&quot;edgeStyle&quot;:&quot;elbowEdgeStyle&quot;,&quot;elbow&quot;:&quot;vertical&quot;,&quot;curved&quot;:0,&quot;rounded&quot;:0};" parent="1" vertex="1">
          <mxGeometry x="720" y="120" width="100" height="720" as="geometry" />
        </mxCell>
        <mxCell id="9y-IcUezVcp35G_ncE1K-12" value="" style="html=1;points=[];perimeter=orthogonalPerimeter;outlineConnect=0;targetShapes=umlLifeline;portConstraint=eastwest;newEdgeStyle={&quot;edgeStyle&quot;:&quot;elbowEdgeStyle&quot;,&quot;elbow&quot;:&quot;vertical&quot;,&quot;curved&quot;:0,&quot;rounded&quot;:0};" parent="9y-IcUezVcp35G_ncE1K-11" vertex="1">
          <mxGeometry x="45" y="310" width="10" height="120" as="geometry" />
        </mxCell>
        <mxCell id="9y-IcUezVcp35G_ncE1K-13" value="" style="shape=mxgraph.sysml.x;" parent="1" vertex="1">
          <mxGeometry x="357.46" y="560" width="40" height="40" as="geometry" />
        </mxCell>
        <mxCell id="9y-IcUezVcp35G_ncE1K-4" value="Submit" style="endArrow=classic;html=1;rounded=0;verticalAlign=bottom;dashed=1;" parent="1" edge="1">
          <mxGeometry width="50" height="50" relative="1" as="geometry">
            <mxPoint x="484.9999999999999" y="350" as="sourcePoint" />
            <mxPoint x="354.9999999999999" y="350" as="targetPoint" />
            <mxPoint as="offset" />
          </mxGeometry>
        </mxCell>
        <mxCell id="9y-IcUezVcp35G_ncE1K-15" value="Update Task" style="html=1;verticalAlign=bottom;endArrow=block;edgeStyle=elbowEdgeStyle;elbow=vertical;curved=0;rounded=0;" parent="1" target="9y-IcUezVcp35G_ncE1K-12" edge="1">
          <mxGeometry x="0.8102" relative="1" as="geometry">
            <mxPoint x="80" y="440" as="sourcePoint" />
            <Array as="points">
              <mxPoint x="640" y="440" />
            </Array>
            <mxPoint x="760" y="440" as="targetPoint" />
            <mxPoint as="offset" />
          </mxGeometry>
        </mxCell>
        <mxCell id="9y-IcUezVcp35G_ncE1K-16" value="Submit" style="endArrow=classic;html=1;rounded=0;verticalAlign=bottom;dashed=1;" parent="1" edge="1">
          <mxGeometry width="50" height="50" relative="1" as="geometry">
            <mxPoint x="764.9999999999998" y="530" as="sourcePoint" />
            <mxPoint x="634.9999999999998" y="530" as="targetPoint" />
            <mxPoint as="offset" />
          </mxGeometry>
        </mxCell>
        <mxCell id="9y-IcUezVcp35G_ncE1K-17" value="Return Home" style="endArrow=classic;html=1;rounded=0;verticalAlign=bottom;dashed=1;" parent="1" edge="1">
          <mxGeometry width="50" height="50" relative="1" as="geometry">
            <mxPoint x="625.0300000000001" y="640" as="sourcePoint" />
            <mxPoint x="354.96" y="640" as="targetPoint" />
            <mxPoint as="offset" />
          </mxGeometry>
        </mxCell>
        <mxCell id="hOXXGqXk5fSfZkC_ILEC-4" value="" style="endArrow=none;dashed=1;html=1;rounded=0;" edge="1" parent="1">
          <mxGeometry width="50" height="50" relative="1" as="geometry">
            <mxPoint x="80" y="840" as="sourcePoint" />
            <mxPoint x="80" y="200" as="targetPoint" />
          </mxGeometry>
        </mxCell>
      </root>
    </mxGraphModel>
  </diagram>
</mxfile>
